<svg width="68" height="15" viewBox="0 0 68 15" fill="none" xmlns="http://www.w3.org/2000/svg">
<path d="M11.2353 11.1337H4.12434L2.72247 14.425H0L6.39983 0.203169H9.0004L15.4205 14.425H12.6574L11.2353 11.1337ZM10.3616 9.06135L7.6798 2.84437L5.01828 9.06135H10.3616Z" fill="#9381FF"/>
<path d="M19.4 2.43803H14.6864V0.203169H26.7547V2.43803H22.0412V14.425H19.4V2.43803Z" fill="#9381FF"/>
<path d="M35.1821 14.6282C33.7328 14.6282 32.4258 14.3167 31.2609 13.6936C30.0961 13.057 29.1818 12.1834 28.5181 11.0727C27.8544 9.94852 27.5226 8.69564 27.5226 7.31409C27.5226 5.93254 27.8544 4.68644 28.5181 3.57578C29.1818 2.45158 30.0961 1.57795 31.2609 0.954895C32.4258 0.318298 33.7328 0 35.1821 0C36.6314 0 37.9384 0.318298 39.1032 0.954895C40.2681 1.57795 41.1823 2.4448 41.846 3.55546C42.5097 4.66612 42.8416 5.919 42.8416 7.31409C42.8416 8.70919 42.5097 9.96206 41.846 11.0727C41.1823 12.1834 40.2681 13.057 39.1032 13.6936C37.9384 14.3167 36.6314 14.6282 35.1821 14.6282ZM35.1821 12.3121C36.1302 12.3121 36.9835 12.1021 37.742 11.6822C38.5005 11.2488 39.0965 10.6528 39.5299 9.89434C39.9633 9.1223 40.18 8.26221 40.18 7.31409C40.18 6.36597 39.9633 5.51266 39.5299 4.75416C39.0965 3.98212 38.5005 3.38615 37.742 2.96627C36.9835 2.53284 36.1302 2.31613 35.1821 2.31613C34.234 2.31613 33.3806 2.53284 32.6222 2.96627C31.8637 3.38615 31.2677 3.98212 30.8343 4.75416C30.4008 5.51266 30.1841 6.36597 30.1841 7.31409C30.1841 8.26221 30.4008 9.1223 30.8343 9.89434C31.2677 10.6528 31.8637 11.2488 32.6222 11.6822C33.3806 12.1021 34.234 12.3121 35.1821 12.3121Z" fill="#9381FF"/>
<path d="M58.7049 14.425L58.6846 4.99796L54.0117 12.7997H52.8334L48.1605 5.11986V14.425H45.6412V0.203169H47.8151L53.4632 9.63022L59.0097 0.203169H61.1836L61.2039 14.425H58.7049Z" fill="#9381FF"/>
<path d="M65.6143 14.5672C65.1538 14.5672 64.761 14.4115 64.4359 14.0999C64.1108 13.7749 63.9483 13.3685 63.9483 12.8809C63.9483 12.3798 64.1041 11.9734 64.4156 11.6619C64.7407 11.3504 65.1402 11.1946 65.6143 11.1946C66.0883 11.1946 66.4811 11.3504 66.7927 11.6619C67.1177 11.9734 67.2803 12.3798 67.2803 12.8809C67.2803 13.3685 67.1177 13.7749 66.7927 14.0999C66.4676 14.4115 66.0748 14.5672 65.6143 14.5672Z" fill="#9381FF"/>
</svg>
